<svg xmlns="http://www.w3.org/2000/svg" viewBox="0 0 97.43 86.5"><defs><style>.cls-1{fill:#6d5575;}.cls-1,.cls-2,.cls-3,.cls-4,.cls-5,.cls-6,.cls-7,.cls-9{stroke:#000;stroke-width:1.5px;}.cls-1,.cls-10,.cls-2,.cls-3,.cls-4,.cls-5,.cls-6,.cls-7,.cls-9{stroke-miterlimit:10;}.cls-11,.cls-2{fill:#002d5f;}.cls-3{fill:#df4b00;}.cls-4{fill:#4d4d4d;}.cls-5{fill:#008eb4;}.cls-6{fill:#c1272d;}.cls-7{fill:#f77663;}.cls-8{fill:#d42900;}.cls-9{fill:#29abe2;}.cls-10{fill:none;stroke:#fff;stroke-linecap:round;}</style></defs><title>Asset 1</title><g id="Layer_2" data-name="Layer 2"><g id="Layer_1-2" data-name="Layer 1"><rect class="cls-1" x="28.3" y="19.4" width="4.33" height="38.04"/><polygon class="cls-2" points="68.95 80.24 73.69 81.72 95.87 72.17 56.56 45.75 68.95 80.24"/><polygon class="cls-3" points="72.81 76.21 66.42 58.4 85.47 71.21 73.41 76.4 72.81 76.21"/><rect class="cls-1" x="64.71" y="19.4" width="4.33" height="30.49"/><polygon class="cls-2" points="28.48 80.24 23.74 81.72 1.56 72.17 40.86 45.75 28.48 80.24"/><polygon class="cls-3" points="11.96 71.21 31.01 58.4 24.61 76.21 24.01 76.4 11.96 71.21"/><rect class="cls-4" x="53.49" y="76.75" width="3.35" height="8.82"/><polygon class="cls-5" points="57.71 76.75 65.02 85.75 68.77 85.75 68.77 76.75 64.45 61.25 57.71 76.75"/><polygon class="cls-6" points="73.46 55.73 73.46 51.65 54.78 0.75 51.72 0.75 52.46 45.19 73.46 55.73"/><polygon class="cls-3" points="57.41 42.08 57.07 21.5 66.25 46.52 57.41 42.08"/><polygon class="cls-7" points="56.56 45.75 40.78 45.75 32.88 61.25 40.78 76.75 56.56 76.75 64.45 61.25 56.56 45.75"/><rect class="cls-1" x="28.39" y="19.4" width="4.33" height="30.49" transform="translate(61.1 69.28) rotate(-180)"/><rect class="cls-4" x="40.59" y="76.75" width="3.35" height="8.82" transform="translate(84.52 162.32) rotate(-180)"/><polygon class="cls-7" points="39.71 76.75 32.4 85.75 28.65 85.75 28.65 76.75 32.97 61.25 39.71 76.75"/><polygon class="cls-5" points="39.71 76.75 32.4 85.75 28.65 85.75 28.65 76.75 32.97 61.25 39.71 76.75"/><polygon class="cls-6" points="23.96 55.73 23.96 51.65 42.65 0.75 45.7 0.75 44.97 45.19 23.96 55.73"/><polygon class="cls-3" points="40.36 21.5 40.02 42.08 31.18 46.52 40.36 21.5"/><polygon class="cls-6" points="40.86 45.75 56.65 45.75 64.54 61.25 56.65 76.75 40.86 76.75 32.97 61.25 40.86 45.75"/><polygon class="cls-8" points="42.09 73.52 35.22 60.02 42.09 46.52 55.42 46.52 62.3 60.02 55.42 73.52 42.09 73.52"/><ellipse class="cls-9" cx="48.67" cy="46.2" rx="5.84" ry="9.54"/><path class="cls-10" d="M45.7,41.57a6.92,6.92,0,0,1,1.23-2"/><path class="cls-10" d="M45,43.91c.07-.38.16-.75.25-1.1"/><line class="cls-11" x1="48.67" y1="55.73" x2="48.67" y2="76.75"/><polygon points="49.42 55.73 48.67 76.75 47.92 55.73 49.42 55.73"/></g></g></svg>